<svg width="20" height="20" viewBox="0 0 20 20" fill="none" xmlns="http://www.w3.org/2000/svg">
<path fill-rule="evenodd" clip-rule="evenodd" d="M1.9897 14.8541L0.675909 18.3576C0.449809 18.9605 1.03858 19.5493 1.6415 19.3232L5.14496 18.0094C5.54594 17.859 5.91009 17.6245 6.21291 17.3217L16.36 7.17461C16.36 7.17461 16.0064 6.11395 14.9458 5.05329C13.8851 3.99263 12.8244 3.63908 12.8244 3.63908L2.67737 13.7862C2.37455 14.089 2.14007 14.4532 1.9897 14.8541ZM14.2386 2.22486L15.6224 0.84111C15.8705 0.59298 16.2009 0.43512 16.5471 0.4925C17.0338 0.57318 17.7785 0.81495 18.4813 1.51776C19.1841 2.22056 19.4259 2.96528 19.5065 3.45198C19.5639 3.79816 19.4061 4.12852 19.1579 4.37664L17.7742 5.7604C17.7742 5.7604 17.4206 4.69974 16.36 3.63908C15.2993 2.57842 14.2386 2.22486 14.2386 2.22486Z" fill="#F2F2F3"/>
</svg>
